<svg width="64.000000" height="64.000000" viewBox="0 0 64 64" fill="none" xmlns="http://www.w3.org/2000/svg" xmlns:xlink="http://www.w3.org/1999/xlink">
	<desc>
			Created with Pixso.
	</desc>
	<defs>
		<clipPath id="clip1_188">
			<rect id="account-bebcef0ca6e572bf737a.svg" width="64.000000" height="64.000000" fill="white" fill-opacity="0"/>
		</clipPath>
	</defs>
	<g clip-path="url(#clip1_188)">
		<path id="Vector" d="M16.372 60L47.628 60C50.908 59.9961 54.0528 58.6909 56.3721 56.3721C58.6909 54.0529 59.9961 50.908 60 47.6281L60 16.3719C59.9961 13.092 58.6909 9.94727 56.3721 7.62793C54.0528 5.30908 50.908 4.00391 47.628 4L16.372 4C13.092 4.00391 9.94724 5.30908 7.62793 7.62793C5.30908 9.94727 4.00391 13.092 4 16.3719L4 47.6281C4.00391 50.908 5.30908 54.0529 7.62793 56.3721C9.94724 58.6909 13.092 59.9961 16.372 60ZM7.90701 16.3722C7.90961 14.1279 8.80219 11.9764 10.3894 10.3896C11.9762 8.80237 14.1276 7.90979 16.372 7.90723L47.628 7.90723C49.8723 7.90979 52.0238 8.80249 53.6106 10.3896C55.1979 11.9764 56.0904 14.1278 56.093 16.3722L56.093 47.6282C56.0904 49.8726 55.1978 52.024 53.6106 53.6108C52.0238 55.1981 49.8724 56.0907 47.628 56.0933L16.372 56.0933C14.1277 56.0906 11.9762 55.198 10.3894 53.6108C8.80215 52.024 7.90958 49.8726 7.90701 47.6282L7.90701 16.3722Z" fill="#FFFFFF" fill-opacity="1.000000" fill-rule="nonzero"/>
		<path id="Vector" d="M47.628 60C50.908 59.9961 54.0528 58.6909 56.3721 56.3721C58.6909 54.0529 59.9961 50.908 60 47.6281L60 16.3719C59.9961 13.092 58.6909 9.94727 56.3721 7.62793C54.0528 5.30908 50.908 4.00391 47.628 4L16.372 4C13.092 4.00391 9.94724 5.30908 7.62793 7.62793C5.30908 9.94727 4.00391 13.092 4 16.3719L4 47.6281C4.00391 50.908 5.30908 54.0529 7.62793 56.3721C9.94724 58.6909 13.092 59.9961 16.372 60L47.628 60ZM10.3894 10.3896C11.9762 8.80237 14.1276 7.90979 16.372 7.90723L47.628 7.90723C49.8723 7.90979 52.0238 8.80249 53.6106 10.3896C55.1979 11.9764 56.0904 14.1278 56.093 16.3722L56.093 47.6282C56.0904 49.8726 55.1978 52.024 53.6106 53.6108C52.0238 55.1981 49.8724 56.0907 47.628 56.0933L16.372 56.0933C14.1277 56.0906 11.9762 55.198 10.3894 53.6108C8.80215 52.024 7.90958 49.8726 7.90701 47.6282L7.90701 16.3722C7.90961 14.1279 8.80219 11.9764 10.3894 10.3896Z" stroke="#FFFFFF" stroke-opacity="1.000000" stroke-width="0.500000"/>
		<path id="Vector" d="M21.5824 46.9758C22.1004 46.9758 22.5971 46.77 22.9638 46.4038C23.3301 46.0371 23.5359 45.5405 23.5359 45.0223L23.5359 42.4175C23.5359 39.3934 25.1493 36.5988 27.7682 35.0865C30.3876 33.5743 33.6143 33.5743 36.2337 35.0865C38.8526 36.5988 40.4659 39.3934 40.4659 42.4175L40.4659 45.0223C40.4659 45.7201 40.8383 46.365 41.4427 46.7137C42.0471 47.0631 42.7918 47.0631 43.3962 46.7137C44.0006 46.365 44.3729 45.7201 44.3729 45.0223L44.3729 42.4175C44.3651 40.2446 43.7825 38.1124 42.685 36.2368C41.587 34.3615 40.0128 32.8096 38.1217 31.7386C40.2358 30.0386 41.5477 27.5361 41.7431 24.8303C41.9384 22.1245 40.9996 19.4595 39.1521 17.4733C37.3041 15.4875 34.7135 14.3594 32.0009 14.3594C29.2884 14.3594 26.6977 15.4874 24.8498 17.4733C23.0022 19.4595 22.0634 22.1246 22.2588 24.8303C22.4541 27.536 23.7662 30.0383 25.8801 31.7386C23.989 32.8096 22.4148 34.3615 21.3169 36.2368C20.2193 38.1124 19.6367 40.2446 19.6289 42.4175L19.6289 45.0223C19.6289 45.5405 19.8347 46.0371 20.201 46.4038C20.5673 46.77 21.064 46.9758 21.5824 46.9758ZM26.1404 24.1848C26.1404 22.6301 26.7579 21.1399 27.8567 20.0405C28.956 18.9417 30.4464 18.3242 32.0009 18.3242C33.5555 18.3242 35.0458 18.9417 36.1451 20.0405C37.244 21.1398 37.8614 22.6301 37.8614 24.1848C37.8614 25.7393 37.244 27.2296 36.1451 28.329C35.0459 29.4277 33.5555 30.0453 32.0009 30.0453C30.4468 30.0438 28.9573 29.426 27.8585 28.3271C26.7597 27.2283 26.1418 25.7386 26.1404 24.1848Z" fill="#FFFFFF" fill-opacity="1.000000" fill-rule="nonzero"/>
		<path id="Vector" d="M22.9638 46.4038C23.3301 46.0371 23.5359 45.5405 23.5359 45.0223L23.5359 42.4175C23.5359 39.3934 25.1493 36.5988 27.7682 35.0865C30.3876 33.5743 33.6143 33.5743 36.2337 35.0865C38.8526 36.5988 40.4659 39.3934 40.4659 42.4175L40.4659 45.0223C40.4659 45.7201 40.8383 46.365 41.4427 46.7137C42.0471 47.0631 42.7918 47.0631 43.3962 46.7137C44.0006 46.365 44.3729 45.7201 44.3729 45.0223L44.3729 42.4175C44.3651 40.2446 43.7825 38.1124 42.685 36.2368C41.587 34.3615 40.0128 32.8096 38.1217 31.7386C40.2358 30.0386 41.5477 27.5361 41.7431 24.8303C41.9384 22.1245 40.9996 19.4595 39.1521 17.4733C37.3041 15.4875 34.7135 14.3594 32.0009 14.3594C29.2884 14.3594 26.6977 15.4874 24.8498 17.4733C23.0022 19.4595 22.0634 22.1246 22.2588 24.8303C22.4541 27.536 23.7662 30.0383 25.8801 31.7386C23.989 32.8096 22.4148 34.3615 21.3169 36.2368C20.2193 38.1124 19.6367 40.2446 19.6289 42.4175L19.6289 45.0223C19.6289 45.5405 19.8347 46.0371 20.201 46.4038C20.5673 46.77 21.064 46.9758 21.5824 46.9758C22.1004 46.9758 22.5971 46.77 22.9638 46.4038ZM27.8567 20.0405C28.956 18.9417 30.4464 18.3242 32.0009 18.3242C33.5555 18.3242 35.0458 18.9417 36.1451 20.0405C37.244 21.1398 37.8614 22.6301 37.8614 24.1848C37.8614 25.7393 37.244 27.2296 36.1451 28.329C35.0459 29.4277 33.5555 30.0453 32.0009 30.0453C30.4468 30.0438 28.9573 29.426 27.8585 28.3271C26.7597 27.2283 26.1418 25.7386 26.1404 24.1848C26.1404 22.6301 26.7579 21.1399 27.8567 20.0405Z" stroke="#FFFFFF" stroke-opacity="1.000000" stroke-width="0.500000"/>
	</g>
</svg>
