<svg width="64.000000" height="64.000000" viewBox="0 0 64 64" fill="none" xmlns="http://www.w3.org/2000/svg" xmlns:xlink="http://www.w3.org/1999/xlink">
	<desc>
			Created with Pixso.
	</desc>
	<defs>
		<clipPath id="clip1_224">
			<rect id="graph-6e114cc78fa20a6a8ef1.svg" width="64.000000" height="64.000000" fill="white" fill-opacity="0"/>
		</clipPath>
		<clipPath id="clip1_223">
			<rect id="graph-6e114cc78fa20a6a8ef1.svg fill" width="64.000000" height="64.000000" fill="white" fill-opacity="0"/>
		</clipPath>
		<clipPath id="clip1_222">
			<rect id="graph-6e114cc78fa20a6a8ef1.svg" width="64.000000" height="64.000000" fill="white" fill-opacity="0"/>
		</clipPath>
	</defs>
	<g clip-path="url(#clip1_222)">
		<g clip-path="url(#clip1_223)">
			<g clip-path="url(#clip1_224)">
				<path id="Vector" d="M59.6401 59.6581L57.0693 59.6581L57.0693 22.3375C57.0693 20.6008 55.6555 19.1875 53.9192 19.1875L48.1738 19.1875C46.437 19.1875 45.0237 20.6013 45.0237 22.3375L45.0237 59.6581L38.4974 59.6581L38.4974 39.2478C38.4974 37.5101 37.0835 36.0978 35.3473 36.0978L29.6018 36.0978C27.8651 36.0978 26.4518 37.5116 26.4518 39.2478L26.4518 59.6581L19.9254 59.6581L19.9254 49.0869C19.9254 47.3502 18.5116 45.9369 16.7754 45.9369L11.0299 45.9369C9.29315 45.9369 7.87983 47.3507 7.87983 49.0869L7.87983 59.6581L5.17156 59.6581C4.52459 59.6581 4 60.1823 4 60.8296C4 61.4766 4.52409 62.0012 5.17156 62.0012L59.6399 62.0012C60.2869 62.0012 60.8115 61.4771 60.8115 60.8296C60.8115 60.1823 60.2874 59.6591 59.6404 59.6591L59.6401 59.6581ZM17.5832 59.6581L10.2253 59.6581L10.2253 49.0869C10.2253 48.6421 10.5869 48.2805 11.0317 48.2805L16.7772 48.2805C17.222 48.2805 17.5836 48.6421 17.5836 49.0869L17.5832 59.6581ZM36.1549 59.6581L28.7969 59.6581L28.7964 39.2466C28.7964 38.8007 29.158 38.4401 29.6029 38.4401L35.3484 38.4401C35.7932 38.4401 36.1558 38.8018 36.1558 39.2466L36.1549 59.6581ZM54.7253 59.6581L47.3673 59.6581L47.3673 22.3375C47.3673 21.8927 47.7289 21.5311 48.1738 21.5311L53.9193 21.5311C54.3651 21.5311 54.7257 21.8927 54.7257 22.3375L54.7253 59.6581Z" fill="#FFFFFF" fill-opacity="1.000000" fill-rule="nonzero"/>
				<path id="Vector" d="M57.0693 59.6581L57.0693 22.3375C57.0693 20.6008 55.6555 19.1875 53.9192 19.1875L48.1738 19.1875C46.437 19.1875 45.0237 20.6013 45.0237 22.3375L45.0237 59.6581L38.4974 59.6581L38.4974 39.2478C38.4974 37.5101 37.0835 36.0978 35.3473 36.0978L29.6018 36.0978C27.8651 36.0978 26.4518 37.5116 26.4518 39.2478L26.4518 59.6581L19.9254 59.6581L19.9254 49.0869C19.9254 47.3502 18.5116 45.9369 16.7754 45.9369L11.0299 45.9369C9.29315 45.9369 7.87983 47.3507 7.87983 49.0869L7.87983 59.6581L5.17156 59.6581C4.52459 59.6581 4 60.1823 4 60.8296C4 61.4766 4.52409 62.0012 5.17156 62.0012L59.6399 62.0012C60.2869 62.0012 60.8115 61.4771 60.8115 60.8296C60.8115 60.1823 60.2874 59.6591 59.6404 59.6591L59.6401 59.6581L57.0693 59.6581ZM10.2253 59.6581L10.2253 49.0869C10.2253 48.6421 10.5869 48.2805 11.0317 48.2805L16.7772 48.2805C17.222 48.2805 17.5836 48.6421 17.5836 49.0869L17.5832 59.6581L10.2253 59.6581ZM28.7969 59.6581L28.7964 39.2466C28.7964 38.8007 29.158 38.4401 29.6029 38.4401L35.3484 38.4401C35.7932 38.4401 36.1558 38.8018 36.1558 39.2466L36.1549 59.6581L28.7969 59.6581ZM47.3673 59.6581L47.3673 22.3375C47.3673 21.8927 47.7289 21.5311 48.1738 21.5311L53.9193 21.5311C54.3651 21.5311 54.7257 21.8927 54.7257 22.3375L54.7253 59.6581L47.3673 59.6581Z" stroke="#FFFFFF" stroke-opacity="1.000000" stroke-width="1.000000"/>
				<path id="Vector" d="M57.0677 3.23328C57.0842 2.91382 56.9714 2.58826 56.7272 2.34399C56.4828 2.09985 56.1573 1.98694 55.8379 2.00354C55.8194 2.00256 55.8003 2 55.7818 2L48.6927 2C48.0446 2 47.5211 2.52405 47.5211 3.17151C47.5211 3.81848 48.0452 4.34412 48.6927 4.34412L53.0695 4.34412L41.4849 15.9293L37.1156 11.5601C36.8954 11.3398 36.5979 11.217 36.287 11.217C35.976 11.217 35.6786 11.3409 35.4586 11.5601L14.3923 32.6263C13.9344 33.0844 13.9344 33.8265 14.3923 34.2844C14.6215 34.5121 14.9209 34.6274 15.2208 34.6274C15.5207 34.6274 15.8201 34.5135 16.0493 34.2844L36.2874 14.0461L40.6557 18.4155C41.1136 18.8734 41.8559 18.8734 42.3137 18.4155L54.726 6.00171L54.726 9.96362C54.726 10.6106 55.2501 11.1353 55.8976 11.1353C56.5446 11.1353 57.0701 10.6111 57.0701 9.96362L57.0701 3.28943C57.0701 3.27087 57.0677 3.25183 57.0677 3.23328Z" fill="#FFFFFF" fill-opacity="1.000000" fill-rule="nonzero"/>
				<path id="Vector" d="M56.7272 2.34399C56.4828 2.09985 56.1573 1.98694 55.8379 2.00354C55.8194 2.00256 55.8003 2 55.7818 2L48.6927 2C48.0446 2 47.5211 2.52405 47.5211 3.17151C47.5211 3.81848 48.0452 4.34412 48.6927 4.34412L53.0695 4.34412L41.4849 15.9293L37.1156 11.5601C36.8954 11.3398 36.5979 11.217 36.287 11.217C35.976 11.217 35.6786 11.3409 35.4586 11.5601L14.3923 32.6263C13.9344 33.0844 13.9344 33.8265 14.3923 34.2844C14.6215 34.5121 14.9209 34.6274 15.2208 34.6274C15.5207 34.6274 15.8201 34.5135 16.0493 34.2844L36.2874 14.0461L40.6557 18.4155C41.1136 18.8734 41.8559 18.8734 42.3137 18.4155L54.726 6.00171L54.726 9.96362C54.726 10.6106 55.2501 11.1353 55.8976 11.1353C56.5446 11.1353 57.0701 10.6111 57.0701 9.96362L57.0701 3.28943C57.0701 3.27087 57.0677 3.25183 57.0677 3.23328C57.0842 2.91382 56.9714 2.58826 56.7272 2.34399Z" stroke="#FFFFFF" stroke-opacity="1.000000" stroke-width="1.000000"/>
			</g>
		</g>
	</g>
</svg>
