<svg width="64.000000" height="64.000000" viewBox="0 0 64 64" fill="none" xmlns="http://www.w3.org/2000/svg" xmlns:xlink="http://www.w3.org/1999/xlink">
	<desc>
			Created with Pixso.
	</desc>
	<defs>
		<clipPath id="clip1_203">
			<rect id="link-bfcad7023c70e3546151.svg" width="64.000000" height="64.000000" fill="white" fill-opacity="0"/>
		</clipPath>
		<clipPath id="clip1_202">
			<rect id="link-bfcad7023c70e3546151.svg fill" width="64.000000" height="64.000000" fill="white" fill-opacity="0"/>
		</clipPath>
		<clipPath id="clip1_201">
			<rect id="link-bfcad7023c70e3546151.svg" width="64.000000" height="64.000000" fill="white" fill-opacity="0"/>
		</clipPath>
	</defs>
	<g clip-path="url(#clip1_201)">
		<g clip-path="url(#clip1_202)">
			<g clip-path="url(#clip1_203)">
				<path id="Vector" d="M57.2719 6.71863C54.2474 3.6969 50.1471 2 45.8721 2C41.5972 2 37.4969 3.6969 34.4729 6.71863L24.5579 16.6335C24.0415 17.1678 23.8453 17.9344 24.0415 18.6501C24.2373 19.3665 24.7968 19.9265 25.5126 20.1233C26.229 20.3199 26.9955 20.1241 27.5302 19.6088L37.4452 9.69373C40.4561 6.68335 44.8436 5.50793 48.9562 6.61072C53.0683 7.71289 56.2805 10.925 57.3822 15.0376C58.4835 19.1501 57.3076 23.5382 54.2967 26.5486L44.3846 36.4608C43.979 36.8527 43.748 37.3911 43.7434 37.9554C43.7387 38.5192 43.9612 39.0618 44.3602 39.4603C44.7592 39.8589 45.3018 40.0804 45.8655 40.0753C46.4298 40.0701 46.9682 39.8387 47.3597 39.4326L57.2719 29.5205C60.3052 26.5017 62.0107 22.3994 62.0107 18.1198C62.0107 13.8402 60.3053 9.73743 57.2719 6.71863Z" fill="#FFFFFF" fill-opacity="1.000000" fill-rule="nonzero"/>
				<path id="Vector" d="M6.71239 57.2825C9.73683 60.3041 13.8376 62.0015 18.1131 62.0015C22.3885 62.0015 26.4893 60.3041 29.5142 57.2825L39.4293 47.3674C39.9456 46.8333 40.1414 46.0668 39.9456 45.3508C39.7494 44.6345 39.1903 44.0745 38.474 43.8777C37.7582 43.6812 36.9911 43.8768 36.4569 44.3922L26.5419 54.3073C23.5311 57.3181 19.1426 58.494 15.03 57.3918C10.9169 56.2897 7.70474 53.0774 6.60254 48.9644C5.50035 44.8518 6.67624 40.4633 9.68707 37.4524L19.6021 27.5402C20.102 27.0037 20.2865 26.2452 20.0884 25.5387C19.8898 24.8323 19.3378 24.2802 18.6318 24.0822C17.9254 23.884 17.1668 24.068 16.6298 24.5684L6.71248 34.4801C3.69464 37.5073 2 41.6073 2 45.8812C2 50.1553 3.69455 54.2552 6.71239 57.2825Z" fill="#FFFFFF" fill-opacity="1.000000" fill-rule="nonzero"/>
				<path id="Vector" d="M34.473 26.5482L26.5403 34.478C26.123 34.8672 25.8813 35.4088 25.8714 35.9791C25.8611 36.5496 26.0836 37.0996 26.4868 37.5034C26.8905 37.9066 27.4407 38.1292 28.0111 38.1189C28.5814 38.109 29.1236 37.8673 29.5127 37.45L37.4454 29.5201C37.8632 29.1311 38.104 28.5892 38.1138 28.0189C38.1242 27.4486 37.9021 26.8984 37.4984 26.4946C37.0947 26.0914 36.5446 25.8689 35.9742 25.8793C35.4039 25.8892 34.8617 26.131 34.473 26.5482Z" fill="#FFFFFF" fill-opacity="1.000000" fill-rule="nonzero"/>
				<path id="Vector" d="M16.1319 18.2408C16.6891 18.2404 17.2238 18.0184 17.6176 17.624C18.0114 17.2302 18.233 16.6956 18.233 16.1378C18.233 15.5807 18.0119 15.046 17.6181 14.6517L13.6534 10.6898C13.2713 10.2454 12.7216 9.9801 12.1358 9.9585C11.5504 9.9364 10.9824 10.1599 10.5689 10.5748C10.1549 10.9897 9.9333 11.5587 9.95677 12.1442C9.97977 12.7296 10.2464 13.2788 10.6923 13.6588L14.6457 17.627C15.0395 18.0212 15.5743 18.2423 16.1319 18.2408Z" fill="#FFFFFF" fill-opacity="1.000000" fill-rule="nonzero"/>
				<path id="Vector" d="M22.0796 5.96094C21.5219 5.96094 20.9873 6.1825 20.5929 6.57678C20.1982 6.97107 19.9766 7.50574 19.9766 8.06396L19.9766 13.6721C19.9766 14.4236 20.3775 15.1174 21.0281 15.4929C21.6787 15.8684 22.4805 15.8684 23.1311 15.4929C23.7817 15.1174 24.1826 14.4231 24.1826 13.6716L24.1826 8.06348C24.1826 7.50537 23.961 6.97107 23.5667 6.57678C23.1724 6.1825 22.6377 5.96094 22.0796 5.96094Z" fill="#FFFFFF" fill-opacity="1.000000" fill-rule="nonzero"/>
				<path id="Vector" d="M5.95703 22.0835C5.95703 22.6411 6.1786 23.1763 6.57291 23.5706C6.96721 23.9648 7.50235 24.1865 8.06003 24.1865L13.6682 24.1865C14.4197 24.1865 15.1135 23.7855 15.489 23.135C15.8645 22.4844 15.8645 21.6826 15.489 21.032C15.1135 20.3813 14.4192 19.9805 13.6677 19.9805L8.05956 19.9805C7.50188 19.9805 6.96721 20.202 6.57291 20.5963C6.1786 20.9912 5.95703 21.5258 5.95703 22.0835Z" fill="#FFFFFF" fill-opacity="1.000000" fill-rule="nonzero"/>
				<path id="Vector" d="M50.3336 53.311C50.864 53.8438 51.638 54.0526 52.3642 53.8593C53.0909 53.6663 53.6588 53.1002 53.8546 52.3745C54.0503 51.6493 53.8442 50.8743 53.3138 50.342L49.3491 46.3744C48.8177 45.843 48.0432 45.6351 47.317 45.8295C46.5913 46.0242 46.0243 46.5913 45.8295 47.317C45.6351 48.0432 45.8426 48.8177 46.374 49.3491L50.3336 53.311Z" fill="#FFFFFF" fill-opacity="1.000000" fill-rule="nonzero"/>
				<path id="Vector" d="M58.0304 41.9155C58.0304 41.3578 57.8088 40.8228 57.4145 40.4283C57.0202 40.0341 56.4855 39.8125 55.9274 39.8125L50.3193 39.8125C49.5677 39.8125 48.874 40.2134 48.4985 40.864C48.1229 41.5146 48.1229 42.3164 48.4985 42.967C48.874 43.6176 49.5682 44.0186 50.3198 44.0186L55.9279 44.0186C56.486 44.0186 57.0202 43.7969 57.4145 43.4026C57.8088 43.0078 58.0304 42.4731 58.0304 41.9155Z" fill="#FFFFFF" fill-opacity="1.000000" fill-rule="nonzero"/>
				<path id="Vector" d="M44.0087 55.9332L44.0087 50.3251C44.0087 49.5736 43.6078 48.8798 42.9572 48.5043C42.3066 48.1288 41.5048 48.1288 40.8542 48.5043C40.2036 48.8798 39.8027 49.5741 39.8027 50.3256L39.8027 55.9337C39.8027 56.6853 40.2036 57.379 40.8542 57.7545C41.5048 58.1301 42.3066 58.1301 42.9572 57.7545C43.6078 57.379 44.0087 56.6847 44.0087 55.9332Z" fill="#FFFFFF" fill-opacity="1.000000" fill-rule="nonzero"/>
			</g>
		</g>
	</g>
</svg>
