<svg width="32.000000" height="32.000000" viewBox="0 0 32 32" fill="none" xmlns="http://www.w3.org/2000/svg" xmlns:xlink="http://www.w3.org/1999/xlink">
	<desc>
			Created with Pixso.
	</desc>
	<defs>
		<clipPath id="clip1_331">
			<rect id="telegram-36a1a3b0e7042c6a3257.svg" width="32.000000" height="32.000000" fill="white" fill-opacity="0"/>
		</clipPath>
	</defs>
	<g clip-path="url(#clip1_331)">
		<g opacity="0.500000">
			<path id="Vector" d="M16 32C24.8366 32 32 24.8364 32 16C32 7.16357 24.8366 0 16 0C7.16345 0 0 7.16357 0 16C0 24.8364 7.16345 32 16 32Z" fill="#8D8E8E" fill-opacity="1.000000" fill-rule="evenodd"/>
		</g>
		<path id="Vector" d="M22.0134 23.2563L24.9803 9.07812C25.1256 8.3833 24.4421 7.80469 23.7807 8.0625L6.40359 14.8311C5.84073 15.0503 5.87491 15.8579 6.45422 16.0288L10.8699 17.332L12.5179 22.5591C12.69 23.105 13.3822 23.2705 13.7829 22.8613L16.0659 20.5312L20.5453 23.8179C21.0935 24.2202 21.8742 23.9214 22.0134 23.2563ZM11.82 16.6313L21.3516 10.8232C21.5709 10.6899 21.7953 10.9863 21.6021 11.1538L13.5305 18.1665C13.45 18.2363 13.3988 18.333 13.3869 18.438L13.0761 21.1519C13.066 21.2407 12.9398 21.2524 12.913 21.167L11.6344 17.1196C11.5758 16.9341 11.6522 16.7334 11.82 16.6313Z" fill="#FFFFFF" fill-opacity="1.000000" fill-rule="evenodd"/>
	</g>
</svg>
