<svg width="32.000000" height="32.000000" viewBox="0 0 32 32" fill="none" xmlns="http://www.w3.org/2000/svg" xmlns:xlink="http://www.w3.org/1999/xlink">
	<desc>
			Created with Pixso.
	</desc>
	<defs>
		<clipPath id="clip1_341">
			<rect id="instagram-66c66587d3d7f6895ae8.svg" width="32.000000" height="32.000000" fill="white" fill-opacity="0"/>
		</clipPath>
	</defs>
	<g clip-path="url(#clip1_341)">
		<g opacity="0.500000">
			<path id="Vector" d="M16 32C24.8366 32 32 24.8364 32 16C32 7.16357 24.8366 0 16 0C7.16345 0 0 7.16357 0 16C0 24.8364 7.16345 32 16 32Z" fill="#8D8E8E" fill-opacity="1.000000" fill-rule="nonzero"/>
		</g>
		<path id="Vector" d="M7.05408 12.0698C7.03653 12.2056 7.01898 12.3423 7 12.478L7 19.519C7.01044 19.5913 7.02246 19.6636 7.03448 19.7358C7.06036 19.8916 7.08627 20.0474 7.09656 20.2041C7.27115 22.855 9.07538 24.8188 11.6854 24.9185C14.5716 25.0283 17.4678 25.0254 20.3542 24.9199C22.9642 24.8242 24.8535 22.8652 24.9349 20.2183C25.0217 17.4072 25.0217 14.5898 24.9349 11.7788C24.8535 9.13184 22.9636 7.17236 20.354 7.07715C17.4676 6.97168 14.572 6.97705 11.6852 7.07764C9.28754 7.16113 7.61066 8.79541 7.18091 11.1973C7.12924 11.4863 7.09167 11.7778 7.05408 12.0698ZM17.2288 23.3589C16.82 23.355 16.4112 23.3511 16.0024 23.3511C15.599 23.3511 15.1955 23.355 14.7919 23.3589C13.8906 23.3672 12.9893 23.376 12.0896 23.3418C10.0376 23.2646 8.76166 22.0386 8.70593 19.9668C8.63513 17.3228 8.63513 14.6743 8.70593 12.0303C8.76166 9.9585 10.0376 8.70312 12.0894 8.65967C14.7136 8.60352 17.3407 8.60352 19.9649 8.65967C22.0324 8.7041 23.3055 9.98535 23.3538 12.0801C23.4136 14.6914 23.4136 17.3057 23.3538 19.917C23.3055 22.0122 22.0333 23.2642 19.9649 23.3418C19.0538 23.376 18.1413 23.3672 17.2288 23.3589Z" fill="#FFFFFF" fill-opacity="1.000000" fill-rule="evenodd"/>
		<path id="Vector" d="M11.4141 15.9985C11.4141 13.4302 13.4679 11.3477 16.001 11.3477C18.5343 11.3477 20.5879 13.4302 20.5879 15.9985C20.5879 18.5674 18.5343 20.6499 16.001 20.6499C13.4679 20.6499 11.4141 18.5674 11.4141 15.9985ZM12.9933 15.9985C12.9933 17.6831 14.3399 19.0483 16.001 19.0483C17.6622 19.0483 19.0087 17.6831 19.0087 15.9985C19.0087 14.3145 17.6622 12.9487 16.001 12.9487C14.3399 12.9487 12.9933 14.3145 12.9933 15.9985Z" fill="#FFFFFF" fill-opacity="1.000000" fill-rule="evenodd"/>
		<path id="Vector" d="M21.9462 11.1382C21.9462 11.749 21.4576 12.2441 20.8551 12.2441C20.2525 12.2441 19.7637 11.749 19.7637 11.1382C19.7637 10.5269 20.2525 10.0312 20.8551 10.0312C21.4576 10.0312 21.9462 10.5269 21.9462 11.1382Z" fill="#FFFFFF" fill-opacity="1.000000" fill-rule="nonzero"/>
	</g>
</svg>
