<svg width="32.000000" height="20.000000" viewBox="0 0 32 20" fill="none" xmlns="http://www.w3.org/2000/svg" xmlns:xlink="http://www.w3.org/1999/xlink">
	<desc>
			Created with Pixso.
	</desc>
	<defs>
		<clipPath id="clip1_373">
			<rect id="tg.svg" width="20.000000" height="20.000000" fill="white" fill-opacity="0"/>
		</clipPath>
		<clipPath id="clip1_372">
			<rect id="tg.svg fill" width="32.000000" height="20.000000" fill="white" fill-opacity="0"/>
		</clipPath>
	</defs>
	<g clip-path="url(#clip1_372)">
		<g clip-path="url(#clip1_373)">
			<path id="Vector" d="M10 20C15.5229 20 20 15.5229 20 10C20 4.47705 15.5229 0 10 0C4.47715 0 0 4.47705 0 10C0 15.5229 4.47715 20 10 20Z" fill="#FFFFFF" fill-opacity="1.000000" fill-rule="nonzero"/>
			<path id="Vector" d="M10 20C15.5229 20 20 15.5229 20 10C20 4.47705 15.5229 0 10 0C4.47715 0 0 4.47705 0 10C0 15.5229 4.47715 20 10 20Z" fill="#FFFFFF" fill-opacity="1.000000" fill-rule="nonzero"/>
			<path id="Vector" d="M3.72337 10.488C4.89236 9.84399 6.19728 9.30664 7.41652 8.76636C9.51414 7.88184 11.62 7.01245 13.7472 6.20288C14.1611 6.06494 14.9047 5.93018 14.9776 6.54346C14.9376 7.41162 14.7734 8.27466 14.6608 9.1377C14.3748 11.0359 14.0443 12.9272 13.722 14.8191C13.611 15.4492 12.8216 15.7754 12.3165 15.3721C11.1027 14.5522 9.87952 13.7402 8.68121 12.9014C8.28865 12.5024 8.65265 11.9297 9.00321 11.645C10.003 10.6597 11.0632 9.82251 12.0107 8.78638C12.2663 8.16919 11.5111 8.68945 11.262 8.84863C9.89339 9.79199 8.55821 10.7927 7.11521 11.6216C6.37814 12.0273 5.51905 11.6804 4.7823 11.4541C4.12173 11.1807 3.15378 10.905 3.72337 10.488Z" fill="#390368" fill-opacity="1.000000" fill-rule="nonzero"/>
		</g>
	</g>
</svg>
