<svg width="64.000000" height="64.000000" viewBox="0 0 64 64" fill="none" xmlns="http://www.w3.org/2000/svg" xmlns:xlink="http://www.w3.org/1999/xlink">
	<desc>
			Created with Pixso.
	</desc>
	<defs>
		<clipPath id="clip1_238">
			<rect id="wallet-ecd6fbdd5426492c6ed7.svg" width="64.000000" height="64.000000" fill="white" fill-opacity="0"/>
		</clipPath>
		<clipPath id="clip1_237">
			<rect id="wallet-ecd6fbdd5426492c6ed7.svg fill" width="64.000000" height="64.000000" fill="white" fill-opacity="0"/>
		</clipPath>
	</defs>
	<g clip-path="url(#clip1_237)">
		<g clip-path="url(#clip1_238)">
			<path id="Vector" d="M58.2027 27.7228L56.9062 27.7228L56.9062 26.2029C56.9062 21.4756 54.2021 17.3744 50.2603 15.3408C50.0226 9.60461 45.3178 5.00049 39.5231 5.00049L8.30383 5C4.85687 5 2.05661 7.78455 2.01392 11.2211C2.01392 11.2454 2 11.2656 2 11.2876L2 11.3055L2 11.3096L2 11.3137L2 45.8682C2 52.6129 7.49445 58.0989 14.2514 58.0989L44.6735 58.0989C51.4181 58.0989 56.9042 52.6125 56.9042 45.8682L56.9042 44.3344L58.203 44.3344C60.2967 44.3344 62 42.6311 62 40.5374L62 31.5197C62 29.4258 60.2964 27.7228 58.2027 27.7228ZM8.30429 8.62256L39.5213 8.62256C42.8936 8.62256 45.7123 10.9742 46.4655 14.1211C45.8714 14.0326 45.2696 13.9719 44.6535 13.9719L8.32141 13.9719C8.31558 13.9719 8.31152 13.9701 8.3075 13.9701C6.83383 13.9701 5.634 12.7701 5.634 11.2966C5.63354 9.82263 6.83395 8.62268 8.3053 8.62268L8.30429 8.62256ZM53.2822 45.8716C53.2822 50.6168 49.4205 54.4785 44.6752 54.4785L14.2532 54.4785C9.4957 54.4785 5.62598 50.6168 5.62598 45.8716L5.62598 17.0004C6.4295 17.3788 7.4137 17.5945 8.30347 17.5945L44.6539 17.5945C49.4114 17.5945 53.2811 21.4562 53.2811 26.2014L53.2811 27.7213L46.0633 27.7213C41.4847 27.7213 37.7582 31.4478 37.7582 36.0264C37.7582 40.6049 41.4847 44.3315 46.0633 44.3315L53.2811 44.3315L53.2822 45.8716ZM58.3757 40.5386C58.3757 40.6334 58.297 40.7115 58.2026 40.7115L46.0628 40.7115C43.4818 40.7115 41.3818 38.6115 41.3818 36.0305C41.3818 33.4495 43.4818 31.3477 46.0628 31.3477L58.2026 31.3477C58.2975 31.3477 58.3757 31.4264 58.3757 31.5208L58.3757 40.5386Z" fill="#FFFFFF" fill-opacity="1.000000" fill-rule="nonzero"/>
			<path id="Vector" d="M45.7713 34.0117C44.6558 34.0117 43.7539 34.9159 43.7539 36.0292C43.7539 37.1422 44.6581 38.0464 45.7713 38.0464C46.8867 38.0464 47.7886 37.1422 47.7886 36.0292C47.7886 34.9155 46.8867 34.0117 45.7713 34.0117Z" fill="#FFFFFF" fill-opacity="1.000000" fill-rule="nonzero"/>
		</g>
	</g>
</svg>
