<svg width="850" height="220" viewBox="0 0 1297 237" fill="none" xmlns="http://www.w3.org/2000/svg">
<path d="M1218.42 225.766L1223.37 234.83L1220.95 236.15L1216.97 228.868L1207.84 230.692L1203.38 222.519L1194.25 224.343L1189.29 215.276L1191.72 213.956L1195.7 221.241L1204.83 219.417L1209.29 227.59L1218.42 225.766Z" fill="white"/>
<path d="M1132.09 119.32L1137.82 139.889L1117.14 134.566L1132.09 119.32Z" fill="white"/>
<path d="M91.0913 119.32L96.8213 139.889L76.1412 134.566L91.0913 119.32Z" fill="white"/>
<path d="M1286.52 137.528C1287.69 135.024 1290.67 133.942 1293.17 135.113C1295.68 136.281 1296.76 139.258 1295.59 141.762C1294.42 144.265 1291.44 145.348 1288.94 144.18C1286.43 143.009 1285.35 140.032 1286.52 137.528Z" fill="white"/>
<path d="M1253.88 36.9764L1246.94 36.6784L1246.65 43.4464L1253.59 43.7454L1253.29 50.6914L1260.06 50.9824L1260.36 44.0364L1267.3 44.3354L1267.6 37.5694L1260.65 37.2704L1260.95 30.3224L1254.18 30.0314L1253.88 36.9764Z" fill="white"/>
<path d="M59.5601 220.7L71.04 229.144L68.78 232.212L59.5601 225.426L49.2001 233.041L38.8501 225.426L28.49 233.04L17.01 224.597L19.26 221.53L28.49 228.316L38.8501 220.7L49.2001 228.315L59.5601 220.7Z" fill="white"/>
<path d="M5.02002 44.431C6.35002 44.431 7.43005 43.349 7.43005 42.02C7.43005 40.691 6.35002 39.61 5.02002 39.61C3.69002 39.61 2.60999 40.691 2.60999 42.02C2.60999 43.349 3.69002 44.431 5.02002 44.431ZM5.02002 37C7.79002 37 10.04 39.252 10.04 42.02C10.04 44.789 7.79002 47.041 5.02002 47.041C2.25002 47.041 0 44.789 0 42.02C0 39.252 2.25002 37 5.02002 37Z" fill="white"/>
<path d="M240.022 7.43103C241.352 7.43103 242.432 6.34902 242.432 5.02002C242.432 3.69102 241.352 2.61002 240.022 2.61002C238.692 2.61002 237.612 3.69102 237.612 5.02002C237.612 6.34902 238.692 7.43103 240.022 7.43103ZM240.022 3.05176e-05C242.792 3.05176e-05 245.042 2.25202 245.042 5.02002C245.042 7.78902 242.792 10.041 240.022 10.041C237.252 10.041 235.002 7.78902 235.002 5.02002C235.002 2.25202 237.252 3.05176e-05 240.022 3.05176e-05Z" fill="white"/>
<path d="M1104.02 7.43103C1105.35 7.43103 1106.43 6.34902 1106.43 5.02002C1106.43 3.69102 1105.35 2.61002 1104.02 2.61002C1102.7 2.61002 1101.61 3.69102 1101.61 5.02002C1101.61 6.34902 1102.7 7.43103 1104.02 7.43103ZM1104.02 3.05176e-05C1106.79 3.05176e-05 1109.04 2.25202 1109.04 5.02002C1109.04 7.78902 1106.79 10.041 1104.02 10.041C1101.26 10.041 1099.01 7.78902 1099.01 5.02002C1099.01 2.25202 1101.26 3.05176e-05 1104.02 3.05176e-05Z" fill="white"/>
</svg>
