<svg id="visual" viewBox="0 0 2000 150" width="2000" height="150" xmlns="http://www.w3.org/2000/svg" xmlns:xlink="http://www.w3.org/1999/xlink" version="1.1"><path d="M0 20L33.3 27.5C66.7 35 133.3 50 200 52.3C266.7 54.7 333.3 44.3 400 39.5C466.7 34.7 533.3 35.3 600 33.3C666.7 31.3 733.3 26.7 800 25.7C866.7 24.7 933.3 27.3 1000 37.8C1066.7 48.3 1133.3 66.7 1200 73.3C1266.7 80 1333.3 75 1400 65.8C1466.7 56.7 1533.3 43.3 1600 36C1666.7 28.7 1733.3 27.3 1800 26C1866.7 24.7 1933.3 23.3 1966.7 22.7L2000 22L2000 151L1966.7 151C1933.3 151 1866.7 151 1800 151C1733.3 151 1666.7 151 1600 151C1533.3 151 1466.7 151 1400 151C1333.3 151 1266.7 151 1200 151C1133.3 151 1066.7 151 1000 151C933.3 151 866.7 151 800 151C733.3 151 666.7 151 600 151C533.3 151 466.7 151 400 151C333.3 151 266.7 151 200 151C133.3 151 66.7 151 33.3 151L0 151Z" fill="#37164f"></path><path d="M0 65L33.3 66.7C66.7 68.3 133.3 71.7 200 76.5C266.7 81.3 333.3 87.7 400 95.3C466.7 103 533.3 112 600 114.5C666.7 117 733.3 113 800 109.3C866.7 105.7 933.3 102.3 1000 100.2C1066.7 98 1133.3 97 1200 103.2C1266.7 109.3 1333.3 122.7 1400 124.2C1466.7 125.7 1533.3 115.3 1600 108.3C1666.7 101.3 1733.3 97.7 1800 95.2C1866.7 92.7 1933.3 91.3 1966.7 90.7L2000 90L2000 151L1966.7 151C1933.3 151 1866.7 151 1800 151C1733.3 151 1666.7 151 1600 151C1533.3 151 1466.7 151 1400 151C1333.3 151 1266.7 151 1200 151C1133.3 151 1066.7 151 1000 151C933.3 151 866.7 151 800 151C733.3 151 666.7 151 600 151C533.3 151 466.7 151 400 151C333.3 151 266.7 151 200 151C133.3 151 66.7 151 33.3 151L0 151Z" fill="#511e8d"></path></svg>